<svg xmlns="http://www.w3.org/2000/svg" viewBox="0 0 1272 293"><path fill="currentColor" d="M32.05,253.84v-210h40.5v172.5h86.7v37.5Z"/><path fill="currentColor" d="M275.35,253.84v-15.3h-.6l-1.5,2.25a33.62,33.62,0,0,1-4.5,4.65,44,44,0,0,1-20.4,10.8,64.43,64.43,0,0,1-16.8,2.1q-28.8,0-43.05-13.65a44.53,44.53,0,0,1-14.25-33.45q0-20.7,12.3-31.5t41.7-18q27.3-6.59,34.2-10.5c4.6-2.59,6.9-6.3,6.9-11.1s-2.25-8.8-6.75-12-11.25-4.8-20.25-4.8q-15.9,0-22.8,7t-10.8,19.05l-32.4-13.5a61.87,61.87,0,0,1,22.2-32.85q16.5-12.75,43.2-12.75,29.1,0,47.7,15.3t18.6,47.4v100.8Zm-39.3-65.1q-15,3.6-19.65,8.55a16,16,0,0,0-4.65,11.25q0,16.2,23.4,16.2,17.7,0,26.55-6.75t8.85-16.65v-27.6H270a14.21,14.21,0,0,1-2.55,3.75q-1.35,1.35-9.15,4.5A177.45,177.45,0,0,1,236.05,188.74Z"/><path fill="currentColor" d="M345.55,197.44V94.84h39v98.4q0,15,5.7,21.3t18.3,6.3q14.1,0,22.8-7.35t8.7-23.25V94.84h39v159h-37.2v-15.3h-.6q-14.7,19.8-41.4,19.8-27.62,0-41-16.5T345.55,197.44Z"/><path fill="currentColor" d="M622.14,253.84v-15.3h-.6q-1.5,2.1-4.35,5.4t-13.8,8.85a52,52,0,0,1-23.85,5.55q-31.5,0-50.25-22.8t-18.75-61.2q0-38.7,20.4-61.35t48-22.65a50.58,50.58,0,0,1,22.65,5q10,5,13.65,9.75l3.9,5.1h.6V34.84h39v219Zm-2.4-65.1v-29.1q0-14.4-9.15-24.3t-25.05-9.9q-17.1,0-26.55,12.3t-9.45,36.6q0,24,9.45,36.45t26.55,12.45q15.9,0,25.05-10.05T619.74,188.74Z"/><path fill="currentColor" d="M791.34,253.84v-15.3h-.6l-1.5,2.25a33.62,33.62,0,0,1-4.5,4.65,44,44,0,0,1-20.4,10.8,64.43,64.43,0,0,1-16.8,2.1q-28.8,0-43-13.65a44.53,44.53,0,0,1-14.25-33.45q0-20.7,12.3-31.5t41.7-18q27.3-6.59,34.2-10.5c4.6-2.59,6.9-6.3,6.9-11.1s-2.25-8.8-6.75-12-11.25-4.8-20.25-4.8q-15.9,0-22.8,7t-10.8,19.05l-32.4-13.5a61.87,61.87,0,0,1,22.2-32.85q16.5-12.75,43.2-12.75,29.1,0,47.7,15.3T824,153v100.8ZM752,188.74q-15,3.6-19.65,8.55a16,16,0,0,0-4.65,11.25q0,16.2,23.4,16.2,17.7,0,26.55-6.75t8.85-16.65v-27.6h-.6a14.21,14.21,0,0,1-2.55,3.75q-1.35,1.35-9.15,4.5A177.45,177.45,0,0,1,752,188.74Z"/><path fill="currentColor" d="M871.14,197.14v-69.3h-24.6v-33H872v-39h36.9v39h40.2v33h-39.6v65.7q0,12.6,4.2,17.7t17.1,5.1h12.9v37.5h-16.5q-32.1,0-44.1-13.5T871.14,197.14Z"/><path fill="currentColor" d="M977.64,197.44V94.84h39v98.4q0,15,5.7,21.3t18.3,6.3q14.1,0,22.8-7.35t8.7-23.25V94.84h39v159h-37.2v-15.3h-.6q-14.7,19.8-41.4,19.8-27.62,0-41-16.5T977.64,197.44Z"/><path fill="currentColor" d="M1153.13,253.84v-159H1190v16.8h.6A34.9,34.9,0,0,1,1204,97.24a36.45,36.45,0,0,1,19.35-5.4,35.91,35.91,0,0,1,14.4,3l-6,37.8a36.14,36.14,0,0,0-12.3-2.4q-27.3,0-27.3,36.3v87.3Z"/></svg>